<svg width="13" height="24" viewBox="0 0 13 24" fill="none" xmlns="http://www.w3.org/2000/svg">
<path d="M0.46967 22.4697C0.176777 22.7626 0.176777 23.2374 0.46967 23.5303C0.762563 23.8232 1.23744 23.8232 1.53033 23.5303L0.46967 22.4697ZM12 12L12.5303 12.5303C12.671 12.3897 12.75 12.1989 12.75 12C12.75 11.8011 12.671 11.6103 12.5303 11.4697L12 12ZM1.53033 0.46967C1.23744 0.176777 0.762563 0.176777 0.46967 0.46967C0.176777 0.762563 0.176777 1.23744 0.46967 1.53033L1.53033 0.46967ZM1.53033 23.5303L12.5303 12.5303L11.4697 11.4697L0.46967 22.4697L1.53033 23.5303ZM12.5303 11.4697L1.53033 0.46967L0.46967 1.53033L11.4697 12.5303L12.5303 11.4697Z" fill="#968FCA"/>
</svg>
