<svg width="13" height="24" viewBox="0 0 13 24" fill="none" xmlns="http://www.w3.org/2000/svg">
<path d="M12.5303 22.4697C12.8232 22.7626 12.8232 23.2374 12.5303 23.5303C12.2374 23.8232 11.7626 23.8232 11.4697 23.5303L12.5303 22.4697ZM0.999999 12L0.469668 12.5303C0.329017 12.3897 0.249999 12.1989 0.249999 12C0.249999 11.8011 0.329017 11.6103 0.469668 11.4697L0.999999 12ZM11.4697 0.46967C11.7626 0.176777 12.2374 0.176777 12.5303 0.46967C12.8232 0.762563 12.8232 1.23744 12.5303 1.53033L11.4697 0.46967ZM11.4697 23.5303L0.469668 12.5303L1.53033 11.4697L12.5303 22.4697L11.4697 23.5303ZM0.469668 11.4697L11.4697 0.46967L12.5303 1.53033L1.53033 12.5303L0.469668 11.4697Z" fill="#968FCA"/>
</svg>
