<svg width="19" height="18" viewBox="0 0 19 18" fill="none" xmlns="http://www.w3.org/2000/svg">
<path d="M13.7319 11H12.911L12.6201 10.73C13.6384 9.59 14.2514 8.11 14.2514 6.5C14.2514 2.91 11.2277 0 7.49736 0C3.76703 0 0.743286 2.91 0.743286 6.5C0.743286 10.09 3.76703 13 7.49736 13C9.17029 13 10.7081 12.41 11.8927 11.43L12.1733 11.71V12.5L17.3687 17.49L18.9169 16L13.7319 11ZM7.49736 11C4.91003 11 2.82146 8.99 2.82146 6.5C2.82146 4.01 4.91003 2 7.49736 2C10.0847 2 12.1733 4.01 12.1733 6.5C12.1733 8.99 10.0847 11 7.49736 11Z" fill="white"/>
</svg>
