<svg width="221" height="40" viewBox="0 0 221 40" fill="none" xmlns="http://www.w3.org/2000/svg">
<g clip-path="url(#clip0_67_439)">
<path d="M54.2186 4.98969H53.6633V33.0868H54.2186V4.98969Z" fill="#7267C3"/>
<path d="M1.05493 28.8774V28.0714H4.12489C4.26412 28.0714 4.37657 27.9585 4.37657 27.8198V11.233C4.37657 11.0937 4.26412 10.9808 4.12489 10.9808H1.05493V10.1754H13.8681V10.9808H10.4463C10.3071 10.9808 10.1941 11.0937 10.1941 11.233V27.8198C10.1941 27.9585 10.3071 28.0714 10.4463 28.0714H11.2394C16.7105 28.0714 19.3697 26.186 19.3697 22.3085V21.7425H20.5125V28.8774H1.05493Z" fill="#7267C3"/>
<path d="M41.0572 28.8774L26.7265 13.4901C26.6793 13.4387 26.6119 13.4092 26.5423 13.4092H26.4544C26.3152 13.4092 26.2022 13.5222 26.2022 13.6614V25.9932C26.2022 27.9226 27.5249 28.072 29.3937 28.072H29.76V28.8779H22.0613V28.072H22.7799C23.8595 28.072 25.2956 27.8423 25.2956 25.8556V13.3878C25.2956 11.9018 23.8375 10.9808 22.4865 10.9808H22.1796V10.1754H31.4307L41.9686 21.4448C42.0168 21.4956 42.0832 21.5246 42.1528 21.5246H42.2407C42.3799 21.5246 42.4923 21.4116 42.4923 21.2723V13.0606C42.4923 11.1302 41.1697 10.9808 39.3008 10.9808H38.9346V10.1754H46.6627V10.9808H45.9152C45.2999 10.9808 43.4289 10.9808 43.4289 13.1977V28.8774H41.0572Z" fill="#7267C3"/>
<path d="M76.494 20.0139C76.494 16.0085 74.7462 14.734 72.5619 14.734C71.5787 14.734 70.4499 15.0253 69.8309 15.4258V25.22C70.4863 25.402 71.3967 25.5482 72.1614 25.5482C75.0375 25.5482 76.494 23.4727 76.494 20.0139ZM63.6417 29.0069V5.81382H61.5662V1.88172L69.4304 1.48117L69.8309 1.8453V12.1856C71.251 11.166 73.1081 10.2921 75.1467 10.2921C80.5353 10.2921 82.9386 14.2976 82.9386 19.3585C82.9386 26.4221 77.9141 29.9173 71.9429 29.9173C68.7749 29.9173 65.8988 29.5895 63.6417 29.0069Z" fill="#7267C3"/>
<path d="M85.2339 5.48662C85.2339 3.26487 86.0714 2.1366 88.5111 2.1366C91.1687 2.1366 91.8241 3.62954 91.8241 5.48662C91.8241 7.34316 91.2415 8.76328 88.5111 8.76328C85.8893 8.76328 85.2339 7.34316 85.2339 5.48662ZM83.5594 25.6574L85.4159 25.5113V14.6981L83.4866 14.6617V10.8383L91.0595 10.5111L91.6057 10.984V25.6574H93.6079V29.5167H83.5594V25.6574Z" fill="#7267C3"/>
<path d="M106.498 18.1569C106.498 15.6807 105.515 14.1155 103.585 14.1155C101.728 14.1155 100.563 15.4259 100.454 18.2661L106.498 18.1569ZM93.9368 20.196C93.9368 14.4068 97.4683 10.2921 103.585 10.2921C109.52 10.2921 112.36 14.5155 112.36 19.3585V21.2514H100.527C100.599 24.2738 102.711 25.402 105.297 25.402C107.881 25.402 109.411 25.0384 110.94 24.7107L111.777 28.7156C109.774 29.4803 106.607 29.9901 104.168 29.9901C97.0314 29.9901 93.9368 26.5314 93.9368 20.196Z" fill="#7267C3"/>
<path d="M113.017 25.6574L114.873 25.5113V14.6981L112.944 14.6617V10.8024L120.044 10.5111L120.445 10.8383L120.736 13.0595C123.029 11.385 125.032 10.4019 127.289 10.4019C131.55 10.4019 133.151 13.0231 133.151 16.1177V25.6574H135.008V29.5167H125.141V25.6574L126.962 25.5113V17.3199C126.962 14.8432 125.032 14.4796 124.158 14.4796C122.738 14.4796 121.719 15.0253 121.064 15.4258V25.6574H123.03V29.5167H113.017V25.6574Z" fill="#7267C3"/>
<path d="M147.826 18.1569C147.826 15.6807 146.844 14.1155 144.914 14.1155C143.056 14.1155 141.891 15.4259 141.782 18.2661L147.826 18.1569ZM135.265 20.196C135.265 14.4068 138.796 10.2921 144.914 10.2921C150.848 10.2921 153.688 14.5155 153.688 19.3585V21.2514H141.855C141.928 24.2738 144.039 25.402 146.625 25.402C149.21 25.402 150.739 25.0384 152.268 24.7107L153.106 28.7156C151.104 29.4803 147.936 29.9901 145.496 29.9901C138.36 29.9901 135.265 26.5314 135.265 20.196Z" fill="#7267C3"/>
<path d="M154.491 28.8613L154.345 23.9096H159.879L160.061 25.7667C160.644 25.9846 161.591 26.058 162.283 26.058C163.812 26.058 165.268 25.6205 165.268 24.4558C165.268 23.2178 163.848 22.8536 162.21 22.4167L160.171 21.9069C156.129 20.815 154.491 19.3221 154.491 16.446C154.491 13.3144 156.384 10.2921 163.556 10.2921C164.977 10.2921 168.654 10.5834 170.511 11.6394L170.547 16.1905H165.523L165.304 14.4068C164.467 14.1519 163.703 14.0791 162.938 14.0791C161.372 14.0791 160.243 14.5889 160.243 15.5351C160.243 16.5911 161.773 16.9916 163.593 17.465L165.414 17.9748C169.929 19.2128 171.312 21.5063 171.312 23.7276C171.312 27.6961 167.817 29.9901 162.355 29.9901C159.334 29.9901 157.003 29.626 154.491 28.8613Z" fill="#7267C3"/>
<path d="M205.594 14.6981L203.022 14.6617V10.8024L210.122 10.5111L210.522 10.8383L210.814 13.1324C213.18 11.2389 216.057 10.547 217.95 10.547C218.641 10.547 219.661 10.5834 220.353 10.6932V17.1378H214.637V14.8432C213.508 14.8802 212.307 15.2074 211.141 16.0085V25.6575H214.017V29.5167H205.596" fill="#7267C3"/>
<path d="M182.949 25.1037C182.585 25.131 182.241 25.1476 182.055 25.1476C180.671 25.1476 179.615 24.6743 179.615 22.9634V14.8432H184.167V10.7655H179.615V6.28717H175.501L173.499 10.6204L170.95 11.0204V14.8432H173.426V23.4726C173.426 27.1863 175.137 29.9172 179.615 29.9172C181.4 29.9172 183.22 29.6618 184.494 29.2982L184.487 29.2211C183.765 28.0521 183.233 26.6497 182.949 25.1037Z" fill="#7267C3"/>
<path d="M204.549 35.8724L203.58 36.9814C200.924 34.6944 196.821 34.4271 193.533 34.8887C189.864 35.4039 186.366 36.8251 184.484 39.7494L183.32 39.005C184.831 35.2888 189.047 32.6638 193.31 32.0656C197.488 31.4787 202.061 32.9347 204.549 35.8724Z" fill="#7267C3"/>
<path d="M194.426 23.7848L195.446 14.5C195.118 14.3907 194.754 14.3543 194.426 14.3543C190.749 14.3543 189.985 19.1603 189.985 22.7288C189.985 24.1848 190.349 25.7506 191.732 25.7506C192.605 25.7506 193.662 24.9495 194.426 23.7848ZM209.209 17.2674C209.209 24.9131 205.968 29.9376 200.361 29.9376C198.176 29.9376 196.101 29.2458 195.228 26.5881C193.516 28.9909 191.004 30.0833 189.329 30.0833C186.198 30.0833 184.159 27.1707 184.159 22.8375C184.159 16.9391 186.708 10.1673 194.718 10.1673C197.23 10.1673 199.924 10.5679 201.272 11.1141L199.997 23.4935C199.961 23.6386 199.961 24.3305 199.961 24.5126C199.961 25.787 200.324 26.7702 201.89 26.7702C205.022 26.7702 207.242 22.3642 207.242 17.012" fill="#7267C3"/>
</g>
<defs>
<clipPath id="clip0_67_439">
<rect width="220.145" height="40" fill="white" transform="translate(0.42749)"/>
</clipPath>
</defs>
</svg>
